<?xml version="1.0" encoding="utf-8"?>
<!-- Generator: Adobe Illustrator 16.0.0, SVG Export Plug-In . SVG Version: 6.00 Build 0)  -->
<!DOCTYPE svg PUBLIC "-//W3C//DTD SVG 1.1//EN" "http://www.w3.org/Graphics/SVG/1.1/DTD/svg11.dtd">
<svg version="1.1" id="Capa_1" xmlns="http://www.w3.org/2000/svg" xmlns:xlink="http://www.w3.org/1999/xlink" x="0px" y="0px"
	 width="56.69px" height="56.69px" viewBox="0 0 56.69 56.69" enable-background="new 0 0 56.69 56.69" xml:space="preserve">
<circle fill="#BA6C1D" cx="28.383" cy="28.271" r="27.267"/>
<g>
	<path fill-rule="evenodd" clip-rule="evenodd" fill="#E8EADC" d="M19.922,44.326c0,0.677-0.272,0.856-0.95,0.851
		c-0.688-0.006-0.668-0.804-0.668-0.916c0-9.734-0.027-5.1-0.034-14.832c0.001-0.446,0.062-0.82,0.384-1.179
		c0.396-0.439,0.475-1.021,0.43-1.592c-0.014-0.165-0.179-0.386-0.333-0.457c-0.225-0.106-0.319,0.139-0.436,0.295
		c-0.102,0.136-0.233,0.251-0.354,0.375c-0.061-0.176-0.173-0.352-0.17-0.527c0.005-0.28,0.047-0.575,0.146-0.837
		c0.202-0.532,0.629-0.764,1.15-0.683c0.428,0.066,0.769,0.491,0.804,1.012c0.009,0.122,0.003,0.247,0.005,0.369
		C19.895,31.604,19.922,38.896,19.922,44.326z"/>
	<g>
		<path fill="#E8EADC" d="M25.195,26.141c0,0.304,0.076,0.591,0.21,0.843c0.315,0.59,0.951,0.994,1.685,0.994
			c0.764,0,1.424-0.44,1.724-1.073c0.11-0.232,0.171-0.491,0.171-0.764c0-1.013-0.85-1.834-1.895-1.834
			C26.042,24.306,25.195,25.128,25.195,26.141z"/>
		<g>
			<path fill="#E8EADC" d="M20.493,30.113c0.149-0.144,0.341-0.213,0.536-0.221c0.221-0.008,0.446,0.065,0.618,0.23
				c0.002,0.002,0.003,0.004,0.005,0.004l0.104,0.071l1.476,1.305l0.252-0.947c0.606-2.172,2.585-1.983,2.585-1.983
				s-0.101,0.001,0.154,0.001c1.151-0.002,1.218,0.03,1.859-0.001c0.213,0,0.213,0,0.213,0c2.719,0.049,2.778,1.798,2.778,1.798
				l0.631,4.702h-0.001c0,0.012,0.001,0.023,0.001,0.035c0,0.431-0.357,0.777-0.799,0.777s-0.801-0.347-0.801-0.777
				c0-0.012,0-0.023,0.001-0.035h-0.001l-0.499-4.178l0,0l-0.088,3.017l-0.011,0.35l-0.288,9.796c0,0.575-0.093,1.046-0.687,1.046
				c-0.596,0-0.686-0.471-0.686-1.046l-0.394-7.351h-0.483l-0.394,7.358l-0.007,0.008c-0.008,0.567-0.092,1.028-0.681,1.028
				c-0.593,0-0.713-0.315-0.713-0.888l-0.358-13.339l0,0l-0.521,1.37c0,0.004,0.002,0.006,0,0.008
				c-0.087,0.159-0.263,0.84-0.799,0.779c-0.128-0.014-0.244-0.038-0.355-0.094l-0.004,0.006l-1.381-0.898l-0.727-0.472
				l-0.521-0.337h0.001c-0.001-0.004-0.001-0.004-0.004-0.006C20.183,30.921,20.176,30.42,20.493,30.113z"/>
		</g>
	</g>
</g>
<path fill-rule="evenodd" clip-rule="evenodd" fill="#E8EADC" d="M30.542,25.671l1.206-3.343c-0.068,0-0.129,0-0.189,0
	c-0.955,0-1.91,0-2.865,0c-1.438-0.001-2.451-1.068-2.429-2.508c0.023-1.388-0.001-2.777,0.003-4.167
	c0.004-1.126,0.766-2.064,1.864-2.3c0.171-0.037,0.352-0.051,0.527-0.051c3.305-0.002,6.61-0.003,9.916-0.001
	c1.358,0.001,2.386,1.027,2.391,2.389c0.003,1.423,0.003,2.846,0,4.27c-0.003,1.334-1.037,2.364-2.376,2.368
	c-1.128,0.003-2.254,0.003-3.381-0.003c-0.146-0.001-0.236,0.046-0.33,0.156l-4.219,3.058
	C30.632,25.572,30.602,25.604,30.542,25.671z"/>
<g>
</g>
<g>
</g>
<g>
</g>
<g>
</g>
<g>
</g>
<g>
</g>
</svg>
