<?xml version="1.0" encoding="utf-8"?>
<!-- Generator: Adobe Illustrator 16.0.0, SVG Export Plug-In . SVG Version: 6.00 Build 0)  -->
<!DOCTYPE svg PUBLIC "-//W3C//DTD SVG 1.1//EN" "http://www.w3.org/Graphics/SVG/1.1/DTD/svg11.dtd">
<svg version="1.1" id="Capa_1" xmlns="http://www.w3.org/2000/svg" xmlns:xlink="http://www.w3.org/1999/xlink" x="0px" y="0px"
	 width="56.69px" height="56.69px" viewBox="0 0 56.69 56.69" enable-background="new 0 0 56.69 56.69" xml:space="preserve">
<g>
	<circle fill="#E8EADC" cx="28.345" cy="28.343" r="27.383"/>
	<path fill="#BA6C1D" d="M21.942,18.18c0,0.26-0.063,0.506-0.174,0.721c-0.262,0.507-0.791,0.853-1.399,0.853
		c-0.635,0-1.183-0.377-1.431-0.92c-0.091-0.199-0.143-0.42-0.143-0.654c0-0.869,0.706-1.572,1.574-1.572
		C21.238,16.608,21.942,17.312,21.942,18.18z"/>
	<path fill="#BA6C1D" d="M24.504,16.59v4.758l0.136-0.094c0.002-0.002,0.007-0.005,0.008-0.009c0.226-0.223,0.522-0.321,0.813-0.311
		v-3.267h10.394v7.364H25.461v-1.812l-0.958,0.64v2.25h12.307V16.59H24.504z"/>
	<path fill="#BA6C1D" d="M26.15,22.752c0,0.003-0.001,0.004-0.004,0.004l0.003,0.001l-0.687,0.461v1.812h10.394V17.31H25.461v3.625
		c0.257,0.008,0.511,0.103,0.707,0.298C26.583,21.648,26.577,22.328,26.15,22.752z"/>
	<path fill="#BA6C1D" d="M25.846,21.583c-0.124-0.123-0.283-0.184-0.444-0.19c-0.185-0.006-0.372,0.057-0.513,0.199
		c-0.002,0.001-0.004,0.002-0.005,0.002l-0.086,0.062l-1.226,1.118l-0.21-0.812c-0.502-1.862-2.146-1.699-2.146-1.699
		s0.083,0.001-0.128,0.001c-0.956-0.002-1.012,0.025-1.544-0.001c-0.177,0-0.177,0-0.177,0c-2.257,0.042-2.307,1.539-2.307,1.539
		l-0.524,4.029h0.002c0,0.011-0.002,0.021-0.002,0.031c0,0.369,0.297,0.666,0.665,0.666c0.367,0,0.663-0.297,0.663-0.666
		c0-0.009,0-0.02-0.001-0.031h0.001l0.416-3.578l0,0l0.074,2.583l0.009,0.301l0.239,8.39c0,0.494,0.077,0.896,0.57,0.896
		c0.496,0,0.57-0.402,0.57-0.896l0.327-6.294h0.4l0.327,6.302l0.007,0.006c0.006,0.486,0.076,0.883,0.565,0.883
		c0.493,0,0.593-0.271,0.593-0.762l0.297-11.427l0,0l0.432,1.176c0,0.001-0.001,0.003,0,0.006c0.073,0.135,0.219,0.719,0.663,0.666
		c0.107-0.013,0.205-0.032,0.295-0.08l0.004,0.005l1.146-0.769l0.604-0.404l0.432-0.289h-0.001c0.001-0.003,0.001-0.003,0.003-0.005
		C26.104,22.275,26.109,21.845,25.846,21.583z"/>
	<polygon fill="#BA6C1D" points="17.857,30.219 22.893,30.207 22.202,25.021 18.366,25.027 	"/>
	<g>
		<g>
			<path fill-rule="evenodd" clip-rule="evenodd" fill="#BA6C1D" d="M17.162,40.654c0.02-0.092,0.032-0.188,0.062-0.277
				c0.195-0.588,0.601-0.936,1.21-1.047c0.065-0.012,0.134-0.012,0.202-0.012c1.176-0.002,2.352-0.002,3.528-0.002
				c0.731,0.002,1.359,0.547,1.463,1.27c0.008,0.059,0.012,0.117,0.013,0.176c0,0.664,0,1.326,0,1.99c0,0.014,0,0.027,0,0.047
				c-2.162,0-4.32,0-6.479,0C17.162,42.084,17.162,41.369,17.162,40.654z"/>
			<path fill-rule="evenodd" clip-rule="evenodd" fill="#BA6C1D" d="M24.267,42.797c0-0.021,0-0.039,0-0.055
				c0-0.641-0.001-1.279,0-1.918c0.001-0.682,0.421-1.254,1.066-1.445c0.121-0.037,0.25-0.059,0.376-0.059
				c1.197-0.006,2.395-0.004,3.59-0.002c0.68,0,1.303,0.527,1.42,1.195c0.02,0.107,0.029,0.215,0.029,0.324
				c0.004,0.631,0.002,1.264,0.002,1.896c0,0.02,0,0.041,0,0.062C28.587,42.797,26.431,42.797,24.267,42.797z"/>
			<path fill-rule="evenodd" clip-rule="evenodd" fill="#BA6C1D" d="M37.895,42.797c-2.162,0-4.316,0-6.48,0c0-0.02,0-0.039,0-0.059
				c0-0.646,0-1.293,0-1.939c0-0.725,0.525-1.344,1.24-1.461c0.076-0.014,0.156-0.02,0.236-0.02
				c1.039-0.002,1.354,0.004,2.395-0.004c0.656-0.004,1.279-0.371,1.639-0.902c0.533-0.785,1.51-4.73,1.654-5.629
				c0.156-0.982,1.451-1.328,1.529,0.018c0.043,0.754-1.865,6.959-2.033,7.885c-0.084,0.814-0.18,1.439-0.18,2.064
				C37.895,42.764,37.895,42.779,37.895,42.797z"/>
			<path fill-rule="evenodd" clip-rule="evenodd" fill="#BA6C1D" d="M28.955,37.553c0,0.836-0.683,1.516-1.52,1.516
				c-0.838-0.002-1.515-0.682-1.514-1.52c0.001-0.836,0.679-1.512,1.516-1.514C28.272,36.033,28.956,36.717,28.955,37.553z"/>
			<path fill-rule="evenodd" clip-rule="evenodd" fill="#BA6C1D" d="M20.4,36.035c0.836-0.002,1.519,0.68,1.518,1.518
				c0,0.834-0.68,1.514-1.514,1.516c-0.838,0-1.52-0.68-1.52-1.516C18.882,36.717,19.563,36.035,20.4,36.035z"/>
			<path fill-rule="evenodd" clip-rule="evenodd" fill="#BA6C1D" d="M33.119,37.547c0.01-0.844,0.689-1.52,1.521-1.512
				c0.879,0.008,1.543,0.734,1.512,1.574c-0.031,0.809-0.707,1.486-1.57,1.457C33.777,39.039,33.121,38.381,33.119,37.547z"/>
		</g>
	</g>
</g>
<g>
</g>
<g>
</g>
<g>
</g>
<g>
</g>
<g>
</g>
<g>
</g>
</svg>
